<svg width="44" height="44" viewBox="0 0 44 44" fill="none" xmlns="http://www.w3.org/2000/svg">
<path d="M29.4543 16.4908C29.5857 16.3641 29.6905 16.2124 29.7627 16.0447C29.8348 15.8769 29.8728 15.6965 29.8745 15.514C29.8762 15.3314 29.8415 15.1503 29.7724 14.9813C29.7034 14.8123 29.6013 14.6587 29.4723 14.5296C29.3432 14.4004 29.1898 14.2982 29.0208 14.229C28.8519 14.1598 28.6708 14.1249 28.4883 14.1264C28.3057 14.1279 28.1252 14.1658 27.9575 14.2377C27.7897 14.3097 27.6379 14.4144 27.511 14.5457L22 20.0548L16.4908 14.5457C16.3649 14.4106 16.2131 14.3022 16.0445 14.2271C15.8758 14.1519 15.6937 14.1115 15.5091 14.1082C15.3245 14.105 15.1411 14.139 14.9699 14.2081C14.7987 14.2773 14.6432 14.3802 14.5126 14.5108C14.382 14.6413 14.2791 14.7969 14.2099 14.9681C14.1408 15.1393 14.1068 15.3227 14.1101 15.5073C14.1133 15.6919 14.1537 15.874 14.2289 16.0427C14.304 16.2113 14.4124 16.3631 14.5475 16.489L20.053 22L14.5438 27.5092C14.3009 27.7698 14.1687 28.1146 14.175 28.4708C14.1813 28.827 14.3256 29.1669 14.5775 29.4188C14.8294 29.6707 15.1693 29.815 15.5255 29.8213C15.8818 29.8276 16.2265 29.6954 16.4872 29.4525L22 23.9433L27.5092 29.4543C27.7698 29.6972 28.1146 29.8294 28.4708 29.8232C28.827 29.8169 29.1669 29.6726 29.4188 29.4206C29.6707 29.1687 29.815 28.8288 29.8213 28.4726C29.8276 28.1164 29.6954 27.7717 29.4525 27.511L23.947 22L29.4543 16.4908Z" fill="#808080"/>
</svg>
