<svg width="84" height="24" viewBox="0 0 84 24" fill="none" xmlns="http://www.w3.org/2000/svg">
<path d="M27 15.07L23.973 17.375C23.8663 17.4483 23.7593 17.4807 23.652 17.472C23.5447 17.4633 23.446 17.433 23.356 17.381C23.266 17.329 23.1977 17.2507 23.151 17.146C23.1043 17.0413 23.1033 16.9303 23.148 16.813L24.304 13.015L21.429 10.94C21.3183 10.8707 21.2477 10.7823 21.217 10.675C21.1863 10.5677 21.1917 10.4607 21.233 10.354C21.2743 10.2473 21.3363 10.1617 21.419 10.097C21.5017 10.0323 21.6023 10 21.721 10H25.331L26.511 6.123C26.5563 6.005 26.6217 5.91233 26.707 5.845C26.7917 5.77833 26.8893 5.745 27 5.745C27.1107 5.745 27.2083 5.77833 27.293 5.845C27.3783 5.91233 27.4437 6.005 27.489 6.123L28.669 10H32.279C32.397 10 32.4977 10.0323 32.581 10.097C32.6643 10.1617 32.7263 10.2473 32.767 10.354C32.8077 10.4607 32.813 10.5677 32.783 10.675C32.7517 10.783 32.681 10.8717 32.571 10.941L29.696 13.015L30.852 16.813C30.8967 16.931 30.8957 17.042 30.849 17.146C30.8023 17.25 30.734 17.3283 30.644 17.381C30.554 17.4337 30.4553 17.464 30.348 17.472C30.2407 17.48 30.1337 17.4477 30.027 17.375L27 15.07Z" fill="#591B0D"/>
<path d="M42 15.07L38.973 17.375C38.8663 17.4483 38.7593 17.4807 38.652 17.472C38.5447 17.4633 38.446 17.433 38.356 17.381C38.266 17.329 38.1977 17.2507 38.151 17.146C38.1043 17.0413 38.1033 16.9303 38.148 16.813L39.304 13.015L36.429 10.94C36.3183 10.8707 36.2477 10.7823 36.217 10.675C36.1863 10.5677 36.1917 10.4607 36.233 10.354C36.2743 10.2473 36.3363 10.1617 36.419 10.097C36.5017 10.0323 36.6023 10 36.721 10H40.331L41.511 6.123C41.5563 6.005 41.6217 5.91233 41.707 5.845C41.7917 5.77833 41.8893 5.745 42 5.745C42.1107 5.745 42.2083 5.77833 42.293 5.845C42.3783 5.91233 42.4437 6.005 42.489 6.123L43.669 10H47.279C47.397 10 47.4977 10.0323 47.581 10.097C47.6643 10.1617 47.7263 10.2473 47.767 10.354C47.8077 10.4607 47.813 10.5677 47.783 10.675C47.7517 10.783 47.681 10.8717 47.571 10.941L44.696 13.015L45.852 16.813C45.8967 16.931 45.8957 17.042 45.849 17.146C45.8023 17.25 45.734 17.3283 45.644 17.381C45.554 17.4337 45.4553 17.464 45.348 17.472C45.2407 17.48 45.1337 17.4477 45.027 17.375L42 15.07Z" fill="#591B0D"/>
<path d="M57 15.07L53.973 17.375C53.8663 17.4483 53.7593 17.4807 53.652 17.472C53.5447 17.4633 53.446 17.433 53.356 17.381C53.266 17.329 53.1977 17.2507 53.151 17.146C53.1043 17.0413 53.1033 16.9303 53.148 16.813L54.304 13.015L51.429 10.94C51.3183 10.8707 51.2477 10.7823 51.217 10.675C51.1863 10.5677 51.1917 10.4607 51.233 10.354C51.2743 10.2473 51.3363 10.1617 51.419 10.097C51.5017 10.0323 51.6023 10 51.721 10H55.331L56.511 6.123C56.5563 6.005 56.6217 5.91233 56.707 5.845C56.7917 5.77833 56.8893 5.745 57 5.745C57.1107 5.745 57.2083 5.77833 57.293 5.845C57.3783 5.91233 57.4437 6.005 57.489 6.123L58.669 10H62.279C62.397 10 62.4977 10.0323 62.581 10.097C62.6643 10.1617 62.7263 10.2473 62.767 10.354C62.8077 10.4607 62.813 10.5677 62.783 10.675C62.7517 10.783 62.681 10.8717 62.571 10.941L59.696 13.015L60.852 16.813C60.8967 16.931 60.8957 17.042 60.849 17.146C60.8023 17.25 60.734 17.3283 60.644 17.381C60.554 17.4337 60.4553 17.464 60.348 17.472C60.2407 17.48 60.1337 17.4477 60.027 17.375L57 15.07Z" fill="#591B0D"/>
<path d="M12 15.07L8.973 17.375C8.86633 17.4483 8.75933 17.4807 8.652 17.472C8.54467 17.4633 8.446 17.433 8.356 17.381C8.266 17.329 8.19767 17.2507 8.151 17.146C8.10433 17.0413 8.10333 16.9303 8.148 16.813L9.304 13.015L6.429 10.94C6.31833 10.8707 6.24767 10.7823 6.217 10.675C6.18633 10.5677 6.19167 10.4607 6.233 10.354C6.27433 10.2473 6.33633 10.1617 6.419 10.097C6.50167 10.0323 6.60233 10 6.721 10H10.331L11.511 6.123C11.5563 6.005 11.6217 5.91233 11.707 5.845C11.7917 5.77833 11.8893 5.745 12 5.745C12.1107 5.745 12.2083 5.77833 12.293 5.845C12.3783 5.91233 12.4437 6.005 12.489 6.123L13.669 10H17.279C17.397 10 17.4977 10.0323 17.581 10.097C17.6643 10.1617 17.7263 10.2473 17.767 10.354C17.8077 10.4607 17.813 10.5677 17.783 10.675C17.7517 10.783 17.681 10.8717 17.571 10.941L14.696 13.015L15.852 16.813C15.8967 16.931 15.8957 17.042 15.849 17.146C15.8023 17.25 15.734 17.3283 15.644 17.381C15.554 17.4337 15.4553 17.464 15.348 17.472C15.2407 17.48 15.1337 17.4477 15.027 17.375L12 15.07Z" fill="#591B0D"/>
<path d="M69.6 15.65L72 13.8L74.4 15.65L73.5 12.6L75.75 11H72.95L72 7.9L71.05 11H68.25L70.5 12.6L69.6 15.65ZM72 15.07L68.973 17.375C68.8663 17.4483 68.7593 17.4807 68.652 17.472C68.5447 17.4633 68.446 17.433 68.356 17.381C68.266 17.329 68.1977 17.2507 68.151 17.146C68.1043 17.0413 68.1033 16.9303 68.148 16.813L69.304 13.015L66.429 10.94C66.3143 10.8733 66.2427 10.7857 66.214 10.677C66.1853 10.5677 66.1917 10.46 66.233 10.354C66.2737 10.2473 66.336 10.1617 66.42 10.097C66.5033 10.0323 66.6033 10 66.72 10H70.338L71.51 6.123C71.552 6.001 71.6163 5.90767 71.703 5.843C71.7897 5.777 71.8883 5.744 71.999 5.744C72.1097 5.744 72.2083 5.77667 72.295 5.842C72.3817 5.90733 72.446 6.001 72.488 6.123L73.66 10H77.278C77.3953 10 77.4957 10.0323 77.579 10.097C77.663 10.1617 77.7253 10.2473 77.766 10.354C77.8073 10.4607 77.8137 10.5683 77.785 10.677C77.7563 10.7857 77.6847 10.8737 77.57 10.941L74.695 13.015L75.851 16.813C75.8957 16.931 75.8947 17.042 75.848 17.146C75.8013 17.25 75.733 17.3283 75.643 17.381C75.553 17.4337 75.4543 17.464 75.347 17.472C75.2397 17.48 75.1327 17.4477 75.026 17.375L72 15.07Z" fill="#591B0D"/>
</svg>
