<svg width="40" height="40" viewBox="0 0 40 40" fill="none" xmlns="http://www.w3.org/2000/svg">
<rect width="40" height="40" fill="#5B1C0C"/>
<path d="M20 3.33334C29.205 3.33334 36.6667 10.795 36.6667 20C36.6667 29.205 29.205 36.6667 20 36.6667C17.1633 36.6707 14.3728 35.9477 11.895 34.5667L11.3867 34.27L6.33333 35.7567C6.05833 35.8377 5.76719 35.8472 5.48752 35.7841C5.20784 35.7211 4.94889 35.5877 4.73522 35.3966C4.52155 35.2055 4.36023 34.9629 4.26656 34.692C4.1729 34.421 4.14998 34.1306 4.19999 33.8483L4.24333 33.6667L5.72999 28.6133C4.15842 26.0154 3.32946 23.0363 3.33333 20C3.33333 10.795 10.795 3.33334 20 3.33334ZM20 6.66667C17.6127 6.66624 15.2691 7.30676 13.2139 8.52136C11.1587 9.73596 9.46725 11.4801 8.31626 13.5716C7.16528 15.6631 6.59693 18.0252 6.67059 20.4114C6.74425 22.7975 7.4572 25.1201 8.73499 27.1367C9.06499 27.6567 9.20666 28.2967 9.09499 28.9317L9.02999 29.2033L8.29499 31.705L10.7967 30.97C11.5183 30.7567 12.2683 30.8867 12.8633 31.265C14.6105 32.3713 16.5911 33.056 18.6486 33.2651C20.706 33.4741 22.7838 33.2016 24.7178 32.4693C26.6518 31.737 28.389 30.5648 29.7919 29.0455C31.1949 27.5261 32.2252 25.7013 32.8015 23.7152C33.3777 21.7291 33.484 19.6361 33.1121 17.6018C32.7401 15.5676 31.9001 13.6477 30.6583 11.994C29.4166 10.3403 27.8072 8.99806 25.9574 8.07347C24.1075 7.14889 22.068 6.66726 20 6.66667ZM15.17 11.9733C15.3547 11.8942 15.5567 11.8642 15.7564 11.8861C15.9561 11.908 16.1468 11.9811 16.31 12.0983C17.15 12.7117 17.8167 13.535 18.39 14.3383L18.935 15.1283L19.19 15.5033C19.3377 15.7183 19.4102 15.976 19.3963 16.2364C19.3825 16.4968 19.283 16.7453 19.1133 16.9433L18.9883 17.07L17.4483 18.2133C17.375 18.2677 17.3235 18.3464 17.3031 18.4352C17.2826 18.5241 17.2945 18.6174 17.3367 18.6983C17.6867 19.3317 18.305 20.2767 19.015 20.9867C19.7267 21.6967 20.715 22.3567 21.3917 22.745C21.5383 22.8283 21.715 22.8017 21.835 22.6933L21.8983 22.6183L22.9 21.0933C23.0836 20.848 23.3552 20.6835 23.6577 20.6344C23.9601 20.5853 24.2699 20.6554 24.5217 20.83L25.4267 21.4617C26.3267 22.1033 27.1917 22.7933 27.8767 23.6683C28.0034 23.8328 28.084 24.028 28.11 24.234C28.1361 24.44 28.1068 24.6492 28.025 24.84C27.365 26.38 25.6933 27.6917 23.9567 27.6283L23.6917 27.6117L23.3733 27.5817L23.1933 27.5583L22.7967 27.4917C21.2567 27.2017 18.7883 26.3283 16.23 23.7717C13.6733 21.2133 12.8 18.745 12.51 17.205L12.4433 16.8083L12.4017 16.4617L12.38 16.17L12.3733 16.045C12.31 14.305 13.6283 12.6333 15.17 11.9733Z" fill="white"/>
</svg>
